<svg width="965" height="965" viewBox="0 0 965 965" fill="none" xmlns="http://www.w3.org/2000/svg">
<circle cx="482.5" cy="482.5" r="480" stroke="#C3C3C3" stroke-width="5"/>
<circle cx="483.5" cy="482.5" r="201" stroke="#F2C94C" stroke-width="5"/>
<line x1="484.5" y1="364.5" x2="484.5" y2="484.5" stroke="#2F2F2F" stroke-width="5" stroke-linecap="round"/>
<line x1="559.5" y1="484.5" x2="485.5" y2="484.5" stroke="#2F2F2F" stroke-width="5" stroke-linecap="round"/>
<line x1="468.671" y1="126.616" x2="468.671" y2="217.082" stroke="#F2C94C" stroke-width="10" stroke-linecap="round"/>
<line x1="5" y1="-5" x2="95.4658" y2="-5" transform="matrix(0 -1 -1 0 463.671 846.027)" stroke="#F2C94C" stroke-width="10" stroke-linecap="round"/>
<line x1="5" y1="-5" x2="100.753" y2="-5" transform="matrix(0.707107 0.707107 0.707107 -0.707107 220.438 222.082)" stroke="#F2C94C" stroke-width="10" stroke-linecap="round"/>
<line x1="295.217" y1="678.605" x2="227.51" y2="746.313" stroke="#F2C94C" stroke-width="10" stroke-linecap="round"/>
<line x1="5" y1="-5" x2="100.753" y2="-5" transform="matrix(0.707107 0.707107 0.707107 -0.707107 669.89 671.534)" stroke="#F2C94C" stroke-width="10" stroke-linecap="round"/>
<line x1="5" y1="-5" x2="100.753" y2="-5" transform="matrix(0.707107 -0.707107 -0.707107 -0.707107 669.89 296.861)" stroke="#F2C94C" stroke-width="10" stroke-linecap="round"/>
<g filter="url(#filter0_d_4_181)">
<line x1="5" y1="-5" x2="95.4658" y2="-5" transform="matrix(1 0 0 -1 119.973 465.315)" stroke="#F2C94C" stroke-width="10" stroke-linecap="round"/>
</g>
<line x1="5" y1="-5" x2="95.4658" y2="-5" transform="matrix(1 0 0 -1 738.63 465.315)" stroke="#F2C94C" stroke-width="10" stroke-linecap="round"/>
<defs>
<filter id="filter0_d_4_181" x="115.973" y="465.315" width="108.466" height="18" filterUnits="userSpaceOnUse" color-interpolation-filters="sRGB">
<feFlood flood-opacity="0" result="BackgroundImageFix"/>
<feColorMatrix in="SourceAlpha" type="matrix" values="0 0 0 0 0 0 0 0 0 0 0 0 0 0 0 0 0 0 127 0" result="hardAlpha"/>
<feOffset dy="4"/>
<feGaussianBlur stdDeviation="2"/>
<feComposite in2="hardAlpha" operator="out"/>
<feColorMatrix type="matrix" values="0 0 0 0 0 0 0 0 0 0 0 0 0 0 0 0 0 0 0.25 0"/>
<feBlend mode="normal" in2="BackgroundImageFix" result="effect1_dropShadow_4_181"/>
<feBlend mode="normal" in="SourceGraphic" in2="effect1_dropShadow_4_181" result="shape"/>
</filter>
</defs>
</svg>
